<svg xmlns="http://www.w3.org/2000/svg" width="1280" height="720" viewBox="0 0 1280 720">
<defs>
  <linearGradient id="titleGradient" x1="0%" y1="0%" x2="100%" y2="0%">
    <stop offset="0%" stop-color="#0B1F3A" />
    <stop offset="100%" stop-color="#1565C0" />
  </linearGradient>
  <radialGradient id="bgDecor" cx="82%" cy="12%" r="60%">
    <stop offset="0%" stop-color="#22C1C3" stop-opacity="0.18" />
    <stop offset="100%" stop-color="#22C1C3" stop-opacity="0" />
  </radialGradient>
  
</defs>
<rect x="0" y="0" width="1280" height="720" fill="#F7FAFC" />


<rect x="0" y="0" width="1280" height="92" fill="#0B1F3A" />
<text x="56" y="60" font-family="&quot;Microsoft YaHei&quot;, &quot;PingFang SC&quot;, Arial, sans-serif" font-size="34" font-weight="bold" fill="#FFFFFF">从单模型问答到多智能体协作</text>
<text x="56" y="126" font-family="&quot;Microsoft YaHei&quot;, &quot;PingFang SC&quot;, Arial, sans-serif" font-size="20" fill="#1F2937">核心判断：系统价值来自角色分工、通信协作、工具调用和治理机制的组合。</text>
<path fill="#FFFFFF" stroke="#CBD5E1" d="M74,170 H500 A18,18 0 0 1 518,188 V582 A18,18 0 0 1 500,600 H74 A18,18 0 0 1 56,582 V188 A18,18 0 0 1 74,170 Z" />

  <g transform="translate(88.0, 206.0) scale(0.1875)" fill="#1565C0">
    <path d="M232,64V192a8,8,0,0,1-8,8H160a32,32,0,0,0-32,32V88a32,32,0,0,1,32-32h64A8,8,0,0,1,232,64Z" opacity="0.2" />
    <path d="M224,48H160a40,40,0,0,0-32,16A40,40,0,0,0,96,48H32A16,16,0,0,0,16,64V192a16,16,0,0,0,16,16H96a24,24,0,0,1,24,24,8,8,0,0,0,16,0,24,24,0,0,1,24-24h64a16,16,0,0,0,16-16V64A16,16,0,0,0,224,48ZM96,192H32V64H96a24,24,0,0,1,24,24V200A39.81,39.81,0,0,0,96,192Zm128,0H160a39.81,39.81,0,0,0-24,8V88a24,24,0,0,1,24-24h64ZM160,88h40a8,8,0,0,1,0,16H160a8,8,0,0,1,0-16Zm48,40a8,8,0,0,1-8,8H160a8,8,0,0,1,0-16h40A8,8,0,0,1,208,128Zm0,32a8,8,0,0,1-8,8H160a8,8,0,0,1,0-16h40A8,8,0,0,1,208,160Z" />
  </g>
<text x="152" y="226" font-family="&quot;Microsoft YaHei&quot;, &quot;PingFang SC&quot;, Arial, sans-serif" font-size="25" font-weight="bold" fill="#0B1F3A">问题背景</text>
<text text-anchor="start" font-size="20" fill="#1F2937" font-weight="regular" font-family="&quot;Microsoft YaHei&quot;, &quot;PingFang SC&quot;, Arial, sans-serif" x="88" y="292">大模型应用正在从内容生成走向</text><text text-anchor="start" font-size="20" fill="#1F2937" font-weight="regular" font-family="&quot;Microsoft YaHei&quot;, &quot;PingFang SC&quot;, Arial, sans-serif" x="88" y="322">目标驱动的任务执行。多智能体</text><text text-anchor="start" font-size="20" fill="#1F2937" font-weight="regular" font-family="&quot;Microsoft YaHei&quot;, &quot;PingFang SC&quot;, Arial, sans-serif" x="88" y="352">系统进一步要求多个角色共同完</text><text text-anchor="start" font-size="20" fill="#1F2937" font-weight="regular" font-family="&quot;Microsoft YaHei&quot;, &quot;PingFang SC&quot;, Arial, sans-serif" x="88" y="382">成规划、检索、工具调用、评审</text><text text-anchor="start" font-size="20" fill="#1F2937" font-weight="regular" font-family="&quot;Microsoft YaHei&quot;, &quot;PingFang SC&quot;, Arial, sans-serif" x="88" y="412">和安全控制。</text><path fill="#EAF2F8" d="M102,500 H434 A14,14 0 0 1 448,514 V544 A14,14 0 0 1 434,558 H102 A14,14 0 0 1 88,544 V514 A14,14 0 0 1 102,500 Z" />
<text x="108" y="536" font-family="&quot;Microsoft YaHei&quot;, &quot;PingFang SC&quot;, Arial, sans-serif" font-size="20" font-weight="bold" fill="#1565C0">关键问题：每个角色都需要超大模型吗？</text>
<g id="card-协作复杂度上升">
  <path fill="#EAF2F8" stroke="#CBD5E1" d="M576,170 H850 A16,16 0 0 1 866,186 V286 A16,16 0 0 1 850,302 H576 A16,16 0 0 1 560,286 V186 A16,16 0 0 1 576,170 Z" />
  
  <g transform="translate(588.0, 198.0) scale(0.1796875)" fill="#1565C0">
    <path d="M168,144a40,40,0,1,1-40-40A40,40,0,0,1,168,144ZM64,56A32,32,0,1,0,96,88,32,32,0,0,0,64,56Zm128,0a32,32,0,1,0,32,32A32,32,0,0,0,192,56Z" opacity="0.2" />
    <path d="M244.8,150.4a8,8,0,0,1-11.2-1.6A51.6,51.6,0,0,0,192,128a8,8,0,0,1,0-16,24,24,0,1,0-23.24-30,8,8,0,1,1-15.5-4A40,40,0,1,1,219,117.51a67.94,67.94,0,0,1,27.43,21.68A8,8,0,0,1,244.8,150.4ZM190.92,212a8,8,0,1,1-13.85,8,57,57,0,0,0-98.15,0,8,8,0,1,1-13.84-8,72.06,72.06,0,0,1,33.74-29.92,48,48,0,1,1,58.36,0A72.06,72.06,0,0,1,190.92,212ZM128,176a32,32,0,1,0-32-32A32,32,0,0,0,128,176ZM72,120a8,8,0,0,0-8-8A24,24,0,1,1,87.24,82a8,8,0,1,0,15.5-4A40,40,0,1,0,37,117.51,67.94,67.94,0,0,0,9.6,139.19a8,8,0,1,0,12.8,9.61A51.6,51.6,0,0,1,64,128,8,8,0,0,0,72,120Z" />
  </g>
  <text x="652" y="225" font-family="&quot;Microsoft YaHei&quot;, &quot;PingFang SC&quot;, Arial, sans-serif" font-size="25" font-weight="bold" fill="#0B1F3A">协作复杂度上升</text>
  <text text-anchor="start" font-size="20" fill="#1F2937" font-weight="regular" font-family="&quot;Microsoft YaHei&quot;, &quot;PingFang SC&quot;, Arial, sans-serif" x="588" y="276">智能体数量、轮次和状态管理增加</text></g>
<g id="card-成本曲线变陡">
  <path fill="#EAF2F8" stroke="#CBD5E1" d="M920,170 H1194 A16,16 0 0 1 1210,186 V286 A16,16 0 0 1 1194,302 H920 A16,16 0 0 1 904,286 V186 A16,16 0 0 1 920,170 Z" />
  
  <g transform="translate(932.0, 198.0) scale(0.1796875)" fill="#1565C0">
    <path d="M224,56V208H32V48H216A8,8,0,0,1,224,56Z" opacity="0.2" />
    <path d="M232,208a8,8,0,0,1-8,8H32a8,8,0,0,1-8-8V48a8,8,0,0,1,16,0V156.69l50.34-50.35a8,8,0,0,1,11.32,0L128,132.69,180.69,80H160a8,8,0,0,1,0-16h40a8,8,0,0,1,8,8v40a8,8,0,0,1-16,0V91.31l-58.34,58.35a8,8,0,0,1-11.32,0L96,123.31l-56,56V200H224A8,8,0,0,1,232,208Z" />
  </g>
  <text x="996" y="225" font-family="&quot;Microsoft YaHei&quot;, &quot;PingFang SC&quot;, Arial, sans-serif" font-size="25" font-weight="bold" fill="#0B1F3A">成本曲线变陡</text>
  <text text-anchor="start" font-size="20" fill="#1F2937" font-weight="regular" font-family="&quot;Microsoft YaHei&quot;, &quot;PingFang SC&quot;, Arial, sans-serif" x="932" y="276">token、工具调用和等待时间叠加</text></g>
<g id="card-风险边界扩大">
  <path fill="#EAF2F8" stroke="#CBD5E1" d="M576,340 H850 A16,16 0 0 1 866,356 V456 A16,16 0 0 1 850,472 H576 A16,16 0 0 1 560,456 V356 A16,16 0 0 1 576,340 Z" />
  
  <g transform="translate(588.0, 368.0) scale(0.1796875)" fill="#1565C0">
    <path d="M216,56v58.77c0,84.18-71.31,112.07-85.54,116.8a7.54,7.54,0,0,1-4.92,0C111.31,226.86,40,199,40,114.79V56a8,8,0,0,1,8-8H208A8,8,0,0,1,216,56Z" opacity="0.2" />
    <path d="M208,40H48A16,16,0,0,0,32,56v58.78c0,89.61,75.82,119.34,91,124.39a15.53,15.53,0,0,0,10,0c15.2-5.05,91-34.78,91-124.39V56A16,16,0,0,0,208,40Zm0,74.79c0,78.42-66.35,104.62-80,109.18-13.53-4.51-80-30.69-80-109.18V56H208ZM82.34,141.66a8,8,0,0,1,11.32-11.32L112,148.68l50.34-50.34a8,8,0,0,1,11.32,11.32l-56,56a8,8,0,0,1-11.32,0Z" />
  </g>
  <text x="652" y="395" font-family="&quot;Microsoft YaHei&quot;, &quot;PingFang SC&quot;, Arial, sans-serif" font-size="25" font-weight="bold" fill="#0B1F3A">风险边界扩大</text>
  <text text-anchor="start" font-size="20" fill="#1F2937" font-weight="regular" font-family="&quot;Microsoft YaHei&quot;, &quot;PingFang SC&quot;, Arial, sans-serif" x="588" y="446">越权调用、级联幻觉、数据泄露</text></g>
<g id="card-需要分层用模">
  <path fill="#EAF2F8" stroke="#CBD5E1" d="M920,340 H1194 A16,16 0 0 1 1210,356 V456 A16,16 0 0 1 1194,472 H920 A16,16 0 0 1 904,456 V356 A16,16 0 0 1 920,340 Z" />
  
  <g transform="translate(932.0, 368.0) scale(0.1796875)" fill="#1565C0">
    <path d="M240,124a48,48,0,0,1-32,45.27h0V176a40,40,0,0,1-80,0,40,40,0,0,1-80,0v-6.73h0a48,48,0,0,1,0-90.54V72a40,40,0,0,1,80,0,40,40,0,0,1,80,0v6.73A48,48,0,0,1,240,124Z" opacity="0.2" />
    <path d="M248,124a56.11,56.11,0,0,0-32-50.61V72a48,48,0,0,0-88-26.49A48,48,0,0,0,40,72v1.39a56,56,0,0,0,0,101.2V176a48,48,0,0,0,88,26.49A48,48,0,0,0,216,176v-1.41A56.09,56.09,0,0,0,248,124ZM88,208a32,32,0,0,1-31.81-28.56A55.87,55.87,0,0,0,64,180h8a8,8,0,0,0,0-16H64A40,40,0,0,1,50.67,86.27,8,8,0,0,0,56,78.73V72a32,32,0,0,1,64,0v68.26A47.8,47.8,0,0,0,88,128a8,8,0,0,0,0,16,32,32,0,0,1,0,64Zm104-44h-8a8,8,0,0,0,0,16h8a55.87,55.87,0,0,0,7.81-.56A32,32,0,1,1,168,144a8,8,0,0,0,0-16,47.8,47.8,0,0,0-32,12.26V72a32,32,0,0,1,64,0v6.73a8,8,0,0,0,5.33,7.54A40,40,0,0,1,192,164Zm16-52a8,8,0,0,1-8,8h-4a36,36,0,0,1-36-36V80a8,8,0,0,1,16,0v4a20,20,0,0,0,20,20h4A8,8,0,0,1,208,112ZM60,120H56a8,8,0,0,1,0-16h4A20,20,0,0,0,80,84V80a8,8,0,0,1,16,0v4A36,36,0,0,1,60,120Z" />
  </g>
  <text x="996" y="395" font-family="&quot;Microsoft YaHei&quot;, &quot;PingFang SC&quot;, Arial, sans-serif" font-size="25" font-weight="bold" fill="#0B1F3A">需要分层用模</text>
  <text text-anchor="start" font-size="20" fill="#1F2937" font-weight="regular" font-family="&quot;Microsoft YaHei&quot;, &quot;PingFang SC&quot;, Arial, sans-serif" x="932" y="446">小模型常规执行，大模型仲裁升级</text></g>
<path fill="#0B1F3A" d="M578,510 H1192 A18,18 0 0 1 1210,528 V582 A18,18 0 0 1 1192,600 H578 A18,18 0 0 1 560,582 V528 A18,18 0 0 1 578,510 Z" />
<text x="590" y="548" font-family="&quot;Microsoft YaHei&quot;, &quot;PingFang SC&quot;, Arial, sans-serif" font-size="20" font-weight="bold" fill="#FFFFFF">本 PPT 的核心命题</text>
<text x="590" y="580" font-family="&quot;Microsoft YaHei&quot;, &quot;PingFang SC&quot;, Arial, sans-serif" font-size="20" fill="#FFFFFF">中小型大模型是 MAS 的基础执行层，而非超大模型替代品。</text>
<text x="56" y="682" font-family="&quot;Microsoft YaHei&quot;, &quot;PingFang SC&quot;, Arial, sans-serif" font-size="12" fill="#94A3B8">Source: Source paper synthesized by user; PPT Master analysis</text>
<text x="1188" y="682" text-anchor="end" font-family="&quot;Microsoft YaHei&quot;, &quot;PingFang SC&quot;, Arial, sans-serif" font-size="12" fill="#94A3B8">02 / 10</text>

</svg>